<?xml version="1.0" encoding="UTF-8" standalone="no"?>
<svg
   xmlns:dc="http://purl.org/dc/elements/1.1/"
   xmlns:cc="http://creativecommons.org/ns#"
   xmlns:rdf="http://www.w3.org/1999/02/22-rdf-syntax-ns#"
   xmlns:svg="http://www.w3.org/2000/svg"
   xmlns="http://www.w3.org/2000/svg"
   xmlns:sodipodi="http://sodipodi.sourceforge.net/DTD/sodipodi-0.dtd"
   xmlns:inkscape="http://www.inkscape.org/namespaces/inkscape"
   id="Layer_1_1_"
   style="enable-background:new 0 0 16 16;"
   version="1.1"
   viewBox="0 0 16 16"
   xml:space="preserve"
   sodipodi:docname="muteIcon.svg"
   inkscape:version="0.92.3 (2405546, 2018-03-11)"><metadata
     id="metadata11"><rdf:RDF><cc:Work
         rdf:about=""><dc:format>image/svg+xml</dc:format><dc:type
           rdf:resource="http://purl.org/dc/dcmitype/StillImage" /><dc:title></dc:title></cc:Work></rdf:RDF></metadata><defs
     id="defs9" /><sodipodi:namedview
     pagecolor="#ffffff"
     bordercolor="#666666"
     borderopacity="1"
     objecttolerance="10"
     gridtolerance="10"
     guidetolerance="10"
     inkscape:pageopacity="0"
     inkscape:pageshadow="2"
     inkscape:window-width="1280"
     inkscape:window-height="737"
     id="namedview7"
     showgrid="false"
     inkscape:zoom="14.75"
     inkscape:cx="7.1525424"
     inkscape:cy="10.711864"
     inkscape:window-x="-8"
     inkscape:window-y="-8"
     inkscape:window-maximized="1"
     inkscape:current-layer="Layer_1_1_" /><polygon
     points="10,16 10,0 3,5 0,5 0,11 3,11 "
     id="polygon2" /><polygon
     points="14.646,5.646 13,7.293 11.354,5.646 10.646,6.354 12.293,8 10.646,9.646 11.354,10.354 13,8.707 14.646,10.354   15.354,9.646 13.707,8 15.354,6.354 "
     id="polygon4" /><path
     style="fill:#a0a0a0;stroke:none;stroke-width:0.06779661"
     d="M 6.4745763,13.432523 3.0169492,10.959864 1.5084746,10.957898 0,10.955932 V 8.0067797 5.0576271 h 1.4888512 1.4888512 l 3.4680061,-2.478171 c 1.9074034,-1.362994 3.4799207,-2.46625621 3.4944834,-2.45169375 0.014562,0.0145625 0.018722,3.57043925 0.00924,7.90194885 l -0.017232,7.8754708 z"
     id="path13"
     inkscape:connector-curvature="0" /><path
     style="fill:#a0a0a0;stroke:none;stroke-width:0.06779661"
     d="M 6.4745763,13.390553 3.0847458,10.959471 1.5423729,10.957701 0,10.955932 V 8.0067797 5.0576271 H 1.5130169 3.0260338 L 6.0045487,2.9360657 C 9.3920129,0.5232147 9.8294841,0.22044469 9.8699193,0.26087947 9.8858475,0.27680775 9.8911234,3.784494 9.8816434,8.0557376 l -0.017237,7.7658984 z"
     id="path15"
     inkscape:connector-curvature="0" /><path
     style="fill:#383838;stroke:none;stroke-width:0.06779661;fill-opacity:0"
     d="M 11.032739,9.9550135 10.713125,9.630521 11.526095,8.8196698 12.339064,8.0088186 11.510303,7.1780631 10.681542,6.3473075 11.016966,6.0067622 11.352391,5.666217 l 0.832258,0.8302597 0.832258,0.8302597 0.813664,-0.8115447 0.813665,-0.8115447 0.320974,0.3209739 0.320974,0.3209739 -0.811545,0.8136645 -0.811545,0.8136646 0.83026,0.8322579 0.830259,0.8322579 L 14.98309,9.9728432 14.642566,10.308247 13.845688,9.5134454 C 13.407406,9.0763047 13.019219,8.7186441 12.983051,8.7186441 c -0.03617,0 -0.417871,0.3511939 -0.84823,0.780431 l -0.782469,0.7804309 z"
     id="path17"
     inkscape:connector-curvature="0" /><path
     style="fill:#a0a0a0;stroke:none;stroke-width:0.06779661"
     d="M 6.472698,13.39661 3.0644527,10.955932 H 1.5152772 -0.03389831 V 8.0067797 5.0576271 H 1.4933414 3.0205812 L 6.0526635,2.8998326 C 7.7203085,1.7130456 9.2754237,0.61360374 9.5084746,0.45662845 L 9.9322034,0.17121883 V 8.0042536 c 0,4.3081684 -0.011534,7.8330344 -0.02563,7.8330344 -0.014097,0 -1.5593404,-1.098305 -3.4338754,-2.440678 z"
     id="path824"
     inkscape:connector-curvature="0" /><path
     style="fill:#0000ff;stroke:none;stroke-width:0.06779661;fill-opacity:0"
     d="M 10.999151,9.9568677 10.678053,9.6357693 11.507479,8.8043466 12.336906,7.9729239 11.525361,7.1592593 10.713816,6.3455948 11.03479,6.0246209 11.355764,5.703647 l 0.813665,0.8115447 0.813664,0.8115447 0.832258,-0.8302597 0.832258,-0.8302597 0.335425,0.3405452 0.335424,0.3405453 -0.828761,0.8307556 -0.828761,0.8307555 0.812969,0.8108512 0.81297,0.8108512 -0.319614,0.3244925 -0.319613,0.3244925 -0.782469,-0.7804309 C 13.43482,9.069838 13.052161,8.7186441 13.014825,8.7186441 c -0.03734,0 -0.417736,0.3508474 -0.845333,0.779661 -0.427598,0.4288135 -0.793603,0.7796609 -0.813346,0.7796609 -0.01974,0 -0.180391,-0.144494 -0.356995,-0.3210983 z"
     id="path826"
     inkscape:connector-curvature="0" /><path
     style="fill:#a0a0a0;stroke:none;stroke-width:0.06779661"
     d="M 6.4746338,13.401364 3.0509626,10.955932 H 1.5085321 -0.03389831 V 8.0067797 5.0576271 H 1.4904441 3.0147864 L 5.4734949,3.3067151 C 6.8257844,2.3437134 8.3745763,1.2435798 8.9152542,0.86197369 L 9.8983051,0.16814444 9.9158027,4.0652841 c 0.00962,2.1434269 0.00962,5.6711234 0,7.8393249 l -0.017498,3.942187 z"
     id="path828"
     inkscape:connector-curvature="0" /><path
     style="fill:#383838;stroke:none;stroke-width:0.06779661;fill-opacity:0.94117647"
     d="M 6.441082,13.391611 3.0516555,10.955932 H 1.5088786 -0.03389831 V 8.0067797 5.0576271 H 1.4899888 3.0138759 L 4.3204973,4.1222593 C 6.1442654,2.8166828 9.5216312,0.42530399 9.7457627,0.28084377 L 9.9322034,0.16067662 V 7.9989824 c 0,4.3110686 -0.022881,7.8360566 -0.050847,7.8333066 -0.027966,-0.0028 -1.5760895,-1.101055 -3.4402744,-2.440678 z"
     id="path830"
     inkscape:connector-curvature="0" /><path
     style="fill:#383838;stroke:none;stroke-width:0.06779661;fill-opacity:1"
     d="M 10.999151,9.9568677 10.678053,9.6357693 11.507479,8.8043466 12.336906,7.9729239 11.525361,7.1592593 10.713816,6.3455948 11.03479,6.0246209 11.355764,5.703647 l 0.813665,0.8115447 0.813664,0.8115447 0.832258,-0.8302597 0.832258,-0.8302597 0.335425,0.3405452 0.335424,0.3405453 -0.828761,0.8307556 -0.828761,0.8307555 0.812969,0.8108512 0.81297,0.8108512 -0.319614,0.3244925 -0.319613,0.3244925 -0.782469,-0.7804309 C 13.43482,9.069838 13.052161,8.7186441 13.014825,8.7186441 c -0.03734,0 -0.417736,0.3508474 -0.845333,0.779661 -0.427598,0.4288135 -0.793603,0.7796609 -0.813346,0.7796609 -0.01974,0 -0.180391,-0.144494 -0.356995,-0.3210983 z"
     id="path832"
     inkscape:connector-curvature="0" /><path
     style="fill:#ff0404;stroke:none;stroke-width:0.06779661;fill-opacity:1"
     d="M 11.029152,9.9675984 C 10.873288,9.8341843 10.745763,9.6897273 10.745763,9.6465828 c 0,-0.043144 0.358007,-0.4373869 0.795571,-0.8760943 l 0.795572,-0.7976497 -0.83026,-0.8322579 -0.830259,-0.8322578 0.340545,-0.3354246 0.340545,-0.3354245 0.830779,0.8287841 0.830778,0.8287841 0.777513,-0.7797245 c 0.427632,-0.4288485 0.809794,-0.7797245 0.849248,-0.7797245 0.03946,0 0.207029,0.1378531 0.372386,0.3063402 l 0.30065,0.3063401 -0.814868,0.8148688 -0.814869,0.8148688 0.809383,0.8018098 0.809383,0.8018098 -0.289683,0.3142694 c -0.159326,0.1728479 -0.324506,0.3142689 -0.367067,0.3142689 -0.04256,0 -0.381895,-0.3071422 -0.754077,-0.6825388 C 13.524851,9.1522336 13.16568,8.8148875 13.098874,8.7779724 12.997608,8.7220156 12.84686,8.835521 12.192383,9.4605117 c -0.431765,0.4123118 -0.80636,0.7496573 -0.832434,0.7496573 -0.02607,0 -0.174932,-0.109156 -0.330797,-0.2425706 z"
     id="path836"
     inkscape:connector-curvature="0" /><path
     style="fill:#383838;stroke:none;stroke-width:0.06779661;fill-opacity:0.94117647"
     d="M 9.2420373,15.354908 C 8.9183783,15.128018 8.6376786,14.94382 8.6182597,14.94558 8.5988414,14.947342 8.4857369,14.857965 8.3669173,14.746972 8.2480976,14.635977 8.1387437,14.557301 8.1239092,14.572136 8.1090739,14.586971 8.0022942,14.5107 7.886621,14.402645 7.7709471,14.294589 7.6641675,14.218318 7.6493329,14.233153 7.6344976,14.247988 7.527718,14.171717 7.4120447,14.063662 7.2963708,13.955606 7.1895912,13.879335 7.1747566,13.89417 7.1599214,13.909005 7.0531417,13.832734 6.9374685,13.724679 6.8217946,13.616623 6.7150149,13.540352 6.7001803,13.555187 6.6853451,13.570022 6.5785656,13.493751 6.4628921,13.385696 6.3472185,13.27764 6.2377222,13.204085 6.2195668,13.222241 c -0.018155,0.01816 -0.082612,-0.024 -0.1432374,-0.09367 -0.060625,-0.06967 -0.7548267,-0.58702 -1.5426699,-1.14966 L 3.1012172,10.955932 H 1.5336595 -0.03389831 V 8.0067797 5.0576271 H 1.515286 3.0644704 L 4.9898623,3.6825769 C 7.7076908,1.7415951 9.8425912,0.2440678 9.891859,0.2440678 c 0.04615,0 0.028927,8.2999227 -0.026412,12.7277852 l -0.034939,2.795582 z"
     id="path838"
     inkscape:connector-curvature="0" /></svg>