<?xml version="1.0" encoding="UTF-8" standalone="no"?>
<svg
   xmlns:dc="http://purl.org/dc/elements/1.1/"
   xmlns:cc="http://creativecommons.org/ns#"
   xmlns:rdf="http://www.w3.org/1999/02/22-rdf-syntax-ns#"
   xmlns:svg="http://www.w3.org/2000/svg"
   xmlns="http://www.w3.org/2000/svg"
   xmlns:sodipodi="http://sodipodi.sourceforge.net/DTD/sodipodi-0.dtd"
   xmlns:inkscape="http://www.inkscape.org/namespaces/inkscape"
   id="Layer_1_1_"
   style="enable-background:new 0 0 16 16;"
   version="1.1"
   viewBox="0 0 16 16"
   xml:space="preserve"
   sodipodi:docname="volumeIcon.svg"
   inkscape:version="0.92.3 (2405546, 2018-03-11)"><metadata
     id="metadata13"><rdf:RDF><cc:Work
         rdf:about=""><dc:format>image/svg+xml</dc:format><dc:type
           rdf:resource="http://purl.org/dc/dcmitype/StillImage" /><dc:title></dc:title></cc:Work></rdf:RDF></metadata><defs
     id="defs11" /><sodipodi:namedview
     pagecolor="#ffffff"
     bordercolor="#666666"
     borderopacity="1"
     objecttolerance="10"
     gridtolerance="10"
     guidetolerance="10"
     inkscape:pageopacity="0"
     inkscape:pageshadow="2"
     inkscape:window-width="1280"
     inkscape:window-height="737"
     id="namedview9"
     showgrid="false"
     inkscape:zoom="14.75"
     inkscape:cx="7.1525424"
     inkscape:cy="8"
     inkscape:window-x="-8"
     inkscape:window-y="-8"
     inkscape:window-maximized="1"
     inkscape:current-layer="Layer_1_1_" /><polygon
     points="10,16 10,0 3,5 0,5 0,11 3,11 "
     id="polygon2" /><path
     d="M11,13.91c2.837-0.477,5-2.938,5-5.91s-2.163-5.433-5-5.91v1.011C13.279,3.566,15,5.585,15,8s-1.721,4.434-4,4.899V13.91z"
     id="path4" /><path
     d="M11,9.722v1.094c1.163-0.413,2-1.512,2-2.816s-0.837-2.403-2-2.816v1.094C11.595,6.625,12,7.263,12,8  C12,8.737,11.595,9.375,11,9.722z"
     id="path6" /><path
     style="fill:#a0a0a0;stroke:none;stroke-width:0.06779661"
     d="M 6.4745763,13.432523 3.0169492,10.959864 1.5084746,10.957898 0,10.955932 V 8.0067797 5.0576271 h 1.4888512 1.4888512 l 3.4680061,-2.478171 c 1.9074034,-1.362994 3.4799207,-2.46625621 3.4944834,-2.45169375 0.014562,0.0145625 0.018722,3.57043925 0.00924,7.90194885 l -0.017232,7.8754708 z"
     id="path15"
     inkscape:connector-curvature="0" /><path
     style="fill:#a0a0a0;stroke:none;stroke-width:0.06779661"
     d="M 11.050847,10.266345 V 9.7801468 L 11.360591,9.4833606 C 12.032374,8.8396788 12.198711,7.9176184 11.790436,7.1005868 11.668659,6.8568894 11.469857,6.5919975 11.315859,6.4682419 11.051165,6.2555277 11.050847,6.2546772 11.050847,5.7581448 c 0,-0.2734203 0.02288,-0.4968416 0.05085,-0.4964916 0.02797,3.499e-4 0.20339,0.088155 0.38983,0.195122 0.469457,0.2693428 0.951621,0.8076457 1.207798,1.3484228 0.201998,0.4264073 0.215931,0.5039392 0.215931,1.2015817 0,0.696105 -0.01411,0.7751059 -0.211914,1.1864406 -0.116553,0.2423729 -0.329081,0.5752675 -0.472285,0.7397657 -0.238094,0.273499 -0.986279,0.819556 -1.122922,0.819556 -0.03151,0 -0.05729,-0.218789 -0.05729,-0.486197 z"
     id="path17"
     inkscape:connector-curvature="0" /><path
     style="fill:#383838;stroke:none;stroke-width:0.06779661;fill-opacity:0.94117647"
     d="m 11.050847,13.399726 v -0.46807 l 0.389831,-0.112666 c 1.182014,-0.341617 2.421586,-1.357075 2.982377,-2.443166 0.66477,-1.2874654 0.776208,-2.6516323 0.326136,-3.9923747 C 14.264658,4.9400512 13.072058,3.7456889 11.624599,3.2542387 L 11.050847,3.0594351 V 2.5955172 2.1315993 l 0.220339,0.046397 c 2.70223,0.569007 4.661838,3.0024226 4.669915,5.7990408 0.0073,2.5298499 -1.506042,4.7213789 -3.861366,5.5917689 -0.323515,0.119552 -0.687362,0.235733 -0.808549,0.258179 l -0.220339,0.04081 z"
     id="path19"
     inkscape:connector-curvature="0" /><path
     style="fill:#383838;stroke:none;stroke-width:0.06779661;fill-opacity:1;opacity:1"
     d="m 11.169492,10.701996 c -0.05655,-0.01905 -0.08475,-0.180007 -0.08475,-0.483717 0,-0.443033 0.0073,-0.4623121 0.275456,-0.7231639 0.322357,-0.313628 0.564154,-0.6794715 0.508548,-0.7694441 -0.0215,-0.034783 -0.0061,-0.074232 0.03418,-0.087664 0.09065,-0.030217 0.16811,-0.8139504 0.09711,-0.9826011 -0.02853,-0.067762 -0.06122,-0.193901 -0.07266,-0.2803098 -0.02754,-0.2081109 -0.383995,-0.757327 -0.638951,-0.9844939 -0.186824,-0.1664608 -0.203679,-0.2179029 -0.203679,-0.6216337 0,-0.2701088 0.0283,-0.4401549 0.07326,-0.4401549 0.04029,0 0.238102,0.1094178 0.439579,0.2431508 0.434397,0.2883364 0.863186,0.800163 1.102639,1.3161712 0.153616,0.3310368 0.172564,0.4565705 0.168844,1.1186441 -0.0031,0.5530994 -0.03473,0.8158221 -0.122421,1.0169491 -0.216956,0.4976357 -0.577896,0.9672159 -0.969277,1.2610232 -0.213145,0.160007 -0.418044,0.325767 -0.455332,0.368357 -0.03729,0.04259 -0.105932,0.06459 -0.152542,0.04889 z"
     id="path826"
     inkscape:connector-curvature="0" /><path
     style="fill:#a0a0a0;stroke:none;stroke-width:0.06779661"
     d="M 6.4811601,13.39661 3.0641302,10.955932 H 1.5490143 0.03389831 V 8.0067797 5.0576271 H 1.5335314 3.0331645 L 6.16065,2.8317173 C 7.8807668,1.6074668 9.4330508,0.50769612 9.6101695,0.38778231 L 9.9322034,0.1697572 v 7.8337655 c 0,4.3085713 -0.00765,7.8337653 -0.017007,7.8337653 -0.00935,0 -1.5546698,-1.098305 -3.4340363,-2.440678 z"
     id="path828"
     inkscape:connector-curvature="0" /><path
     style="fill:#383838;stroke:none;stroke-width:0.06779661;fill-opacity:1"
     d="M 6.4804216,13.402822 3.0625382,10.955932 H 1.5482182 0.03389831 V 8.0067797 5.0576271 H 1.5272397 3.0205812 L 6.0526635,2.9014757 C 7.7203085,1.7155924 9.2677966,0.6172822 9.4915254,0.46078635 L 9.8983051,0.17624844 9.9158027,4.0693361 c 0.00962,2.1411983 0.00962,5.6677276 0,7.8367319 l -0.017498,3.943645 z"
     id="path830"
     inkscape:connector-curvature="0" /></svg>